<?xml version="1.0" encoding="UTF-8" standalone="no"?>
<svg
   xmlns:dc="http://purl.org/dc/elements/1.1/"
   xmlns:cc="http://creativecommons.org/ns#"
   xmlns:rdf="http://www.w3.org/1999/02/22-rdf-syntax-ns#"
   xmlns:svg="http://www.w3.org/2000/svg"
   xmlns="http://www.w3.org/2000/svg"
   xmlns:sodipodi="http://sodipodi.sourceforge.net/DTD/sodipodi-0.dtd"
   xmlns:inkscape="http://www.inkscape.org/namespaces/inkscape"
   id="Capa_1"
   enable-background="new 0 0 511.996 511.996"
   height="512"
   viewBox="0 0 511.996 511.996"
   width="512"
   version="1.1"
   sodipodi:docname="email.svg"
   inkscape:version="1.0.1 (3bc2e813f5, 2020-09-07)">
  <metadata
     id="metadata1445">
    <rdf:RDF>
      <cc:Work
         rdf:about="">
        <dc:format>image/svg+xml</dc:format>
        <dc:type
           rdf:resource="http://purl.org/dc/dcmitype/StillImage" />
        <dc:title></dc:title>
      </cc:Work>
    </rdf:RDF>
  </metadata>
  <defs
     id="defs1443" />
  <sodipodi:namedview
     pagecolor="#ffffff"
     bordercolor="#666666"
     borderopacity="1"
     objecttolerance="10"
     gridtolerance="10"
     guidetolerance="10"
     inkscape:pageopacity="0"
     inkscape:pageshadow="2"
     inkscape:window-width="1360"
     inkscape:window-height="705"
     id="namedview1441"
     showgrid="false"
     inkscape:zoom="1.0507812"
     inkscape:cx="256"
     inkscape:cy="256"
     inkscape:window-x="-8"
     inkscape:window-y="-8"
     inkscape:window-maximized="1"
     inkscape:current-layer="Capa_1" />
  <path
     d="m230.9 253.371c13.369 8.913 36.827 8.914 50.199-.001.002-.001.005-.003.007-.004l227.865-151.911c-7.474-21.616-28.018-37.188-52.142-37.188h-401.663c-24.125 0-44.668 15.572-52.143 37.188l227.87 151.912c.003.002.005.002.007.004z"
     id="path1436"
     style="fill:#000000" />
  <path
     d="m297.746 278.328c-.003.002-.005.004-.007.005-11.702 7.801-26.724 11.702-41.741 11.702-15.02 0-30.036-3.9-41.739-11.703-.002-.001-.003-.002-.005-.003l-214.254-142.835v257.072c0 30.417 24.747 55.163 55.166 55.163h401.666c30.418 0 55.164-24.746 55.164-55.163v-257.072z"
     id="path1438"
     style="fill:#000000" />
</svg>
