<?xml version="1.0" encoding="UTF-8" standalone="no"?>
<svg
   xmlns:dc="http://purl.org/dc/elements/1.1/"
   xmlns:cc="http://creativecommons.org/ns#"
   xmlns:rdf="http://www.w3.org/1999/02/22-rdf-syntax-ns#"
   xmlns:svg="http://www.w3.org/2000/svg"
   xmlns="http://www.w3.org/2000/svg"
   xmlns:sodipodi="http://sodipodi.sourceforge.net/DTD/sodipodi-0.dtd"
   xmlns:inkscape="http://www.inkscape.org/namespaces/inkscape"
   viewBox="0 0 304 304"
   width="304"
   height="304"
   version="1.1"
   id="svg2120"
   sodipodi:docname="fondoMainu.svg"
   inkscape:version="1.0.1 (3bc2e813f5, 2020-09-07)">
  <metadata
     id="metadata2126">
    <rdf:RDF>
      <cc:Work
         rdf:about="">
        <dc:format>image/svg+xml</dc:format>
        <dc:type
           rdf:resource="http://purl.org/dc/dcmitype/StillImage" />
        <dc:title></dc:title>
      </cc:Work>
    </rdf:RDF>
  </metadata>
  <defs
     id="defs2124" />
  <sodipodi:namedview
     pagecolor="#ffffff"
     bordercolor="#666666"
     borderopacity="1"
     objecttolerance="10"
     gridtolerance="10"
     guidetolerance="10"
     inkscape:pageopacity="0"
     inkscape:pageshadow="2"
     inkscape:window-width="1360"
     inkscape:window-height="705"
     id="namedview2122"
     showgrid="false"
     inkscape:snap-global="false"
     inkscape:zoom="1.2513929"
     inkscape:cx="54.715601"
     inkscape:cy="143.00595"
     inkscape:window-x="-8"
     inkscape:window-y="-8"
     inkscape:window-maximized="1"
     inkscape:current-layer="svg2120" />
  <path
     fill="#000"
     d="m 44.1,224 c 1.208245,-5.91917 9.895719,-5.01313 9.895719,1 0,6.01313 -8.687474,6.91917 -9.895719,1 H 0 v -2 z m 160,48 c 1.20825,-5.91917 9.89572,-5.01313 9.89572,1 0,6.01313 -8.68747,6.91917 -9.89572,1 H 82 v -2 z m 57.8,-46 c -1.20825,5.91917 -9.89572,5.01313 -9.89572,-1 0,-6.01313 8.68747,-6.91917 9.89572,-1 H 304 v 2 z m 0,16 c -1.20825,5.91917 -9.89572,5.01313 -9.89572,-1 0,-6.01313 8.68747,-6.91917 9.89572,-1 H 304 v 2 z m 6.2,-114 c 1.20825,-5.91917 9.89572,-5.01313 9.89572,1 0,6.01313 -8.68747,6.91917 -9.89572,1 h -86.2 c -1.20825,5.91917 -9.89572,5.01313 -9.89572,-1 0,-6.01313 8.68747,-6.91917 9.89572,-1 z M 12.1,80 c 1.208245,-5.919168 9.895719,-5.013134 9.895719,1 0,6.013134 -8.687474,6.919168 -9.895719,1 H 0 v -2 z m 185.8,34 c -1.20825,5.91917 -9.89572,5.01313 -9.89572,-1 0,-6.01313 8.68747,-6.91917 9.89572,-1 h 86.2 c 1.20825,-5.91917 9.89572,-5.01313 9.89572,1 0,6.01313 -8.68747,6.91917 -9.89572,1 z M 258,12.1 c 5.91917,1.208245 5.01313,9.895719 -1,9.895719 -6.01313,0 -6.91917,-8.687474 -1,-9.895719 V 0 h 2 z m -64,208 c 5.91917,1.20825 5.01313,9.89572 -1,9.89572 -6.01313,0 -6.91917,-8.68747 -1,-9.89572 v -54.2 c -5.91917,-1.20825 -5.01313,-9.89572 1,-9.89572 6.01313,0 6.91917,8.68747 1,9.89572 z M 242,21.9 V 80 h 62 v 2 H 240 V 21.9 c -5.91917,-1.208245 -5.01313,-9.895719 1,-9.895719 6.01313,0 6.91917,8.687474 1,9.895719 z m 16,16 V 64 h 46 v 2 H 256 V 37.9 c -5.91917,-1.208245 -5.01313,-9.895719 1,-9.895719 6.01313,0 6.91917,8.687474 1,9.895719 z m -128,96 V 208 h 16 v 12.1 c 5.91917,1.20825 5.01313,9.89572 -1,9.89572 -6.01313,0 -6.91917,-8.68747 -1,-9.89572 V 210 h -16 v -76.1 c -5.91917,-1.20825 -5.01313,-9.89572 1,-9.89572 6.01313,0 6.91917,8.68747 1,9.89572 z M 124.1,112 c 1.20825,-5.91917 9.89572,-5.01313 9.89572,1 0,6.01313 -8.68747,6.91917 -9.89572,1 H 114 v 48 H 85.9 c -1.208245,5.91917 -9.895719,5.01313 -9.895719,-1 0,-6.01313 8.687474,-6.91917 9.895719,-1 H 112 v -48 z m -6.2,130 c -1.20825,5.91917 -9.89572,5.01313 -9.89572,-1 0,-6.01313 8.68747,-6.91917 9.89572,-1 H 176 v -74.1 c -5.91917,-1.20825 -5.01313,-9.89572 1,-9.89572 6.01313,0 6.91917,8.68747 1,9.89572 V 242 Z m -16,-64 c -1.20825,5.91917 -9.895719,5.01313 -9.895719,-1 0,-6.01313 8.687469,-6.91917 9.895719,-1 H 114 v 48 h 10.1 c 1.20825,-5.91917 9.89572,-5.01313 9.89572,1 0,6.01313 -8.68747,6.91917 -9.89572,1 H 112 V 178 Z M 66,284.1 c 5.919168,1.20825 5.013134,9.89572 -1,9.89572 -6.013134,0 -6.919168,-8.68747 -1,-9.89572 V 274 H 50 v 30 H 48 V 272 H 66 Z M 236.1,176 c 1.20825,-5.91917 9.89572,-5.01313 9.89572,1 0,6.01313 -8.68747,6.91917 -9.89572,1 H 226 v 94 h 48 v 32 h -2 v -30 h -48 v -98 z m 25.8,-30 c -1.20825,5.91917 -9.89572,5.01313 -9.89572,-1 0,-6.01313 8.68747,-6.91917 9.89572,-1 H 274 v 44.1 c 5.91917,1.20825 5.01313,9.89572 -1,9.89572 -6.01313,0 -6.91917,-8.68747 -1,-9.89572 V 146 Z m -64,96 c -1.20825,5.91917 -9.89572,5.01313 -9.89572,-1 0,-6.01313 8.68747,-6.91917 9.89572,-1 H 208 v -80 h 16 v -14 h -42.1 c -1.20825,5.91917 -9.89572,5.01313 -9.89572,-1 0,-6.01313 8.68747,-6.91917 9.89572,-1 H 226 v 18 h -16 v 80 z M 284.1,32 c 1.20825,-5.919168 9.89572,-5.013134 9.89572,1 0,6.013134 -8.68747,6.919168 -9.89572,1 H 272 V 0 h 2 V 32 Z M 98,101.9 V 146 H 53.9 c -1.208245,5.91917 -9.895719,5.01313 -9.895719,-1 0,-6.01313 8.687474,-6.91917 9.895719,-1 H 96 v -42.1 c -5.919168,-1.20825 -5.013134,-9.895719 1,-9.895719 6.01313,0 6.91917,8.687469 1,9.895719 z M 53.9,34 c -1.208245,5.919168 -9.895719,5.013134 -9.895719,-1 0,-6.013134 8.687474,-6.919168 9.895719,-1 H 80 V 0 h 2 V 34 Z M 114,37.9 V 66 H 82 v 64 H 69.9 c -1.208245,5.91917 -9.895719,5.01313 -9.895719,-1 0,-6.01313 8.687474,-6.91917 9.895719,-1 H 80 V 64 h 32 V 37.9 c -5.91917,-1.208245 -5.01313,-9.895719 1,-9.895719 6.01313,0 6.91917,8.687474 1,9.895719 z M 101.9,82 c -1.20825,5.919168 -9.895719,5.013134 -9.895719,-1 0,-6.013134 8.687469,-6.919168 9.895719,-1 H 128 V 37.9 c -5.91917,-1.208245 -5.01313,-9.895719 1,-9.895719 6.01313,0 6.91917,8.687474 1,9.895719 V 82 Z m 16,-64 c -1.20825,5.919168 -9.89572,5.013134 -9.89572,-1 0,-6.013134 8.68747,-6.919168 9.89572,-1 H 146 v 44.1 c 5.91917,1.208245 5.01313,9.895719 -1,9.895719 -6.01313,0 -6.91917,-8.687474 -1,-9.895719 V 18 Z m 102.2,270 c 1.20825,-5.91917 9.89572,-5.01313 9.89572,1 0,6.01313 -8.68747,6.91917 -9.89572,1 H 98 v 14 H 96 V 288 Z M 242,149.9 V 160 h 16 v 34 h -16 v 62 h 48 v 48 h -2 v -46 h -48 v -66 h 16 v -30 h -16 v -12.1 c -5.91917,-1.20825 -5.01313,-9.89572 1,-9.89572 6.01313,0 6.91917,8.68747 1,9.89572 z M 53.9,18 c -1.208245,5.919168 -9.895719,5.013134 -9.895719,-1 0,-6.013134 8.687474,-6.919168 9.895719,-1 H 64 V 2 H 48 V 0 h 18 v 18 z m 112,32 c -1.20825,5.919168 -9.89572,5.013134 -9.89572,-1 0,-6.013134 8.68747,-6.919168 9.89572,-1 H 192 V 0 h 50 V 2 H 194 V 23.174176 50 Z M 117.9,2 C 117.34771,4.7061971 114.7062,6.4522826 112,5.8999979 109.29381,5.3477131 107.54771,2.7061971 108.1,0 h 2.07 c -0.68645,1.9513471 0.76145,3.9955271 2.83,3.9955271 2.06855,0 3.51645,-2.04418 2.83,-3.9955271 H 178 V 34 H 160 V 21.9 c -5.91917,-1.208245 -5.01313,-9.895719 1,-9.895719 6.01313,0 6.91917,8.687474 1,9.895719 V 32 h 14 V 2 Z m 0,96 c -1.20825,5.91917 -9.89572,5.01313 -9.89572,-1 0,-6.013134 8.68747,-6.919168 9.89572,-1 H 137 l 32,-32 h 39 V 21.9 c -5.91917,-1.208245 -5.01313,-9.895719 1,-9.895719 6.01313,0 6.91917,8.687474 1,9.895719 V 66 h -40.17 l -32,32 z m 28.1,90.1 c 5.91917,1.20825 5.01313,9.89572 -1,9.89572 -6.01313,0 -6.91917,-8.68747 -1,-9.89572 V 111.59 L 175.59,80 H 224 V 21.9 c -5.91917,-1.208245 -5.01313,-9.895719 1,-9.895719 6.01313,0 6.91917,8.687474 1,9.895719 V 82 H 176.41 L 146,112.41 Z m 16,32 c 5.91917,1.20825 5.01313,9.89572 -1,9.89572 -6.01313,0 -6.91917,-8.68747 -1,-9.89572 V 120.59 L 184.59,96 H 300.1 c 0.4006,-1.964289 1.93571,-3.499395 3.9,-3.9 v 2.07 c -2.67261,0.940174 -2.67261,4.719826 0,5.66 v 2.07 c -1.96429,-0.4006 -3.4994,-1.935711 -3.9,-3.9 H 185.41 L 162,121.41 Z m -144,-64 c 5.919168,1.20825 5.013134,9.89572 -1,9.89572 -6.013134,0 -6.919168,-8.68747 -1,-9.89572 v -3.51 l 48,-48 V 48 H 96 V 0 h 2 V 50 H 66 v 55.41 l -48,48 z M 50,53.9 v 43.51 l -48,48 V 208 h 26.1 c 1.208245,-5.91917 9.895719,-5.01313 9.895719,1 0,6.01313 -8.687474,6.91917 -9.895719,1 H 0 v -65.41 l 48,-48 V 53.9 c -5.919168,-1.208245 -5.013134,-9.895719 1,-9.895719 6.013134,0 6.919168,8.687474 1,9.895719 z m -16,16 v 19.51 l -34,34 v -2.82 l 32,-32 V 69.9 c -5.919168,-1.208245 -5.013134,-9.895719 1,-9.895719 6.013134,0 6.919168,8.687474 1,9.895719 z M 12.1,32 c 1.208245,-5.919168 9.895719,-5.013134 9.895719,1 0,6.013134 -8.687474,6.919168 -9.895719,1 H 9.41 L 0,43.41 V 40.6 L 8.59,32 Z m 265.8,18 c -1.20825,5.919168 -9.89572,5.013134 -9.89572,-1 0,-6.013134 8.68747,-6.919168 9.89572,-1 h 18.69 L 304,40.59 v 2.82 L 297.41,50 Z m -16,160 c -1.20825,5.91917 -9.89572,5.01313 -9.89572,-1 0,-6.01313 8.68747,-6.91917 9.89572,-1 H 288 v -71.41 l 16,-16 v 2.82 l -14,14 V 210 Z m -208,32 c -1.208245,5.91917 -9.895719,5.01313 -9.895719,-1 0,-6.01313 8.687474,-6.91917 9.895719,-1 H 64 V 217.41 L 40.59,194 H 21.9 c -1.208245,5.91917 -9.895719,5.01313 -9.895719,-1 0,-6.01313 8.687474,-6.91917 9.895719,-1 H 41.41 L 66,216.59 V 242 Z m 150.2,14 c 1.20825,-5.91917 9.89572,-5.01313 9.89572,1 0,6.01313 -8.68747,6.91917 -9.89572,1 H 96 V 201.4 L 56.6,162 H 37.9 c -1.208245,5.91917 -9.895719,5.01313 -9.895719,-1 0,-6.01313 8.687474,-6.91917 9.895719,-1 H 57.4 L 98,200.6 V 256 Z m -150.2,2 c -1.208245,5.91917 -9.895719,5.01313 -9.895719,-1 0,-6.01313 8.687474,-6.91917 9.895719,-1 H 80 V 209.41 L 48.59,178 H 21.9 c -1.208245,5.91917 -9.895719,5.01313 -9.895719,-1 0,-6.01313 8.687474,-6.91917 9.895719,-1 H 49.41 L 82,208.59 V 258 Z M 34,39.8 v 1.61 L 9.41,66 H 0 V 64 H 8.59 L 32,40.59 V 0 h 2 z M 2,300.1 c 1.9642887,0.4006 3.4993952,1.93571 3.9,3.9 H 3.83 C 3.2783751,302.43644 1.5630128,301.61683 0,302.17 V 256 h 18 v 48 H 16 V 258 H 2 Z M 34,241 v 63 H 32 V 242 H 0 v -2 H 34 Z M 17,18 H 0 V 16 H 16 V 0 h 2 v 18 z m 273,-2 h 14 v 2 H 288 V 0 h 2 z m -32,273 v 15 h -2 v -14 h -14 v 14 h -2 v -16 h 18 z M 0,92.1 c 3.0957233,-0.616236 5.985285,1.743573 6,4.9 6.457e-4,3.16374 -2.9001845,5.53275 -6,4.9 V 99.83 C 1.9513471,100.51645 3.9955271,99.06855 3.9955271,97 3.9955271,94.93145 1.9513471,93.483553 0,94.17 Z M 80,272 h 2 v 32 h -2 z m 37.9,32 h -2.07 c -0.94017,-2.67261 -4.71983,-2.67261 -5.66,0 h -2.07 c 1.08434,-5.34002 8.71566,-5.34002 9.8,0 z M 5.9,0 C 6.5947788,3.5063324 3.5063324,6.5947788 0,5.9 V 3.83 C 2.3796931,4.6736543 4.6736543,2.3796931 3.83,0 Z m 294.2,0 h 2.07 c -0.55317,1.5630128 0.26644,3.2783751 1.83,3.83 V 5.9 C 301.29347,5.3482108 299.54713,2.706309 300.1,0 Z m 3.9,300.1 v 2.07 c -0.85528,0.30199 -1.52801,0.97472 -1.83,1.83 h -2.07 c 0.4006,-1.96429 1.93571,-3.4994 3.9,-3.9 z M 97,100 c 4,0 4,-6 0,-6 -3.999998,0 -3.999998,6 0,6 z m 0,-16 c 4,0 4,-6 0,-6 -3.999998,0 -3.999998,6 0,6 z m 16,16 c 4,0 4,-6 0,-6 -4,0 -4,6 0,6 z m 16,16 c 4,0 4,-6 0,-6 -4,0 -4,6 0,6 z m 0,16 c 4,0 4,-6 0,-6 -4,0 -4,6 0,6 z m -48,32 c 3.999998,0 3.999998,-6 0,-6 -3.999998,0 -3.999998,6 0,6 z m 16,16 c 4,0 4,-6 0,-6 -3.999998,0 -3.999998,6 0,6 z m 32,48 c 4,0 4,-6 0,-6 -4,0 -4,6 0,6 z m -16,16 c 4,0 4,-6 0,-6 -4,0 -4,6 0,6 z m 32,-16 c 4,0 4,-6 0,-6 -4,0 -4,6 0,6 z m 0,-32 c 4,0 4,-6 0,-6 -4,0 -4,6 0,6 z m 16,32 c 4,0 4,-6 0,-6 -4,0 -4,6 0,6 z m 32,16 c 4,0 4,-6 0,-6 -4,0 -4,6 0,6 z m 0,-16 c 4,0 4,-6 0,-6 -4,0 -4,6 0,6 z m -16,-64 c 4,0 4,-6 0,-6 -4,0 -4,6 0,6 z m 16,0 c 4,0 4,-6 0,-6 -4,0 -4,6 0,6 z m 16,96 c 4,0 4,-6 0,-6 -4,0 -4,6 0,6 z m 0,16 c 4,0 4,-6 0,-6 -4,0 -4,6 0,6 z m 16,16 c 4,0 4,-6 0,-6 -4,0 -4,6 0,6 z m 16,-144 c 4,0 4,-6 0,-6 -4,0 -4,6 0,6 z m 0,32 c 4,0 4,-6 0,-6 -4,0 -4,6 0,6 z m 16,-32 c 4,0 4,-6 0,-6 -4,0 -4,6 0,6 z m 16,-16 c 4,0 4,-6 0,-6 -4,0 -4,6 0,6 z m -96,0 c 4,0 4,-6 0,-6 -4,0 -4,6 0,6 z m 0,16 c 4,0 4,-6 0,-6 -4,0 -4,6 0,6 z m 16,-32 c 4,0 4,-6 0,-6 -4,0 -4,6 0,6 z m 96,0 c 4,0 4,-6 0,-6 -4,0 -4,6 0,6 z M 273,52 c 4,0 4,-6 0,-6 -4,0 -4,6 0,6 z m 16,-16 c 4,0 4,-6 0,-6 -4,0 -4,6 0,6 z m -32,0 c 4,0 4,-6 0,-6 -4,0 -4,6 0,6 z m 0,-16 c 4,0 4,-6 0,-6 -4,0 -4,6 0,6 z m -16,0 c 4,0 4,-6 0,-6 -4,0 -4,6 0,6 z m -16,0 c 4,0 4,-6 0,-6 -4,0 -4,6 0,6 z m -16,0 c 4,0 4,-6 0,-6 -4,0 -4,6 0,6 z M 49,36 c 3.999998,0 3.999998,-6 0,-6 -3.999998,0 -3.999998,6 0,6 z m -32,0 c 3.999998,0 3.999998,-6 0,-6 -3.999998,0 -3.999998,6 0,6 z m 32,16 c 3.999998,0 3.999998,-6 0,-6 -3.999998,0 -3.999998,6 0,6 z M 33,68 c 3.999998,0 3.999998,-6 0,-6 -3.999998,0 -3.999998,6 0,6 z M 49,20 c 3.999998,0 3.999998,-6 0,-6 -3.999998,0 -3.999998,6 0,6 z m 0,240 c 3.999998,0 3.999998,-6 0,-6 -3.999998,0 -3.999998,6 0,6 z m 16,32 c 3.999998,0 3.999998,-6 0,-6 -3.999998,0 -3.999998,6 0,6 z M 49,228 c 3.999998,0 3.999998,-6 0,-6 -3.999998,0 -3.999998,6 0,6 z m 0,16 c 3.999998,0 3.999998,-6 0,-6 -3.999998,0 -3.999998,6 0,6 z M 33,212 c 3.999998,0 3.999998,-6 0,-6 -3.999998,0 -3.999998,6 0,6 z M 113,36 c 4,0 4,-6 0,-6 -4,0 -4,6 0,6 z m 16,0 c 4,0 4,-6 0,-6 -4,0 -4,6 0,6 z M 113,20 c 4,0 4,-6 0,-6 -4,0 -4,6 0,6 z m 32,48 c 4,0 4,-6 0,-6 -4,0 -4,6 0,6 z m 16,-16 c 4,0 4,-6 0,-6 -4,0 -4,6 0,6 z m 0,-32 c 4,0 4,-6 0,-6 -4,0 -4,6 0,6 z m 112,176 c 4,0 4,-6 0,-6 -4,0 -4,6 0,6 z m -16,16 c 4,0 4,-6 0,-6 -4,0 -4,6 0,6 z m 0,16 c 4,0 4,-6 0,-6 -4,0 -4,6 0,6 z m 0,16 c 4,0 4,-6 0,-6 -4,0 -4,6 0,6 z M 17,180 c 3.999998,0 3.999998,-6 0,-6 -3.999998,0 -3.999998,6 0,6 z m 0,16 c 3.999998,0 3.999998,-6 0,-6 -3.999998,0 -3.999998,6 0,6 z m 0,-32 c 3.999998,0 3.999998,-6 0,-6 -3.999998,0 -3.999998,6 0,6 z m 16,0 c 3.999998,0 3.999998,-6 0,-6 -3.999998,0 -3.999998,6 0,6 z M 17,84 c 3.999998,0 3.999998,-6 0,-6 -3.999998,0 -3.999998,6 0,6 z m 32,64 c 3.999998,0 3.999998,-6 0,-6 -3.999998,0 -3.999998,6 0,6 z m 16,-16 c 3.999998,0 3.999998,-6 0,-6 -3.999998,0 -3.999998,6 0,6 z"
     id="path2118"
     style="fill:#00004c;stroke:#87b1ff;stroke-opacity:0;fill-opacity:1"
     sodipodi:nodetypes="cscccccscccccscccccscccccsccscccscccccsccscccscccccsccsccccccccscccccccscccccsccccsccsccccscccccscccsccccsccccscccccscccccccccscccccccccccscccsccccsccccccscccccccscccccccccscccsccscccccccccccscccccsccscccsccccscccsccccsccccccccccccccccccccccsccscccccccccsccccccccccsccscccccsccccccscccccsccccccscccccsccccccscccccccccccccscccccccccccccccccscccccscccccccsccscccccccscccccccscccccccccscccccsccccccscccccsccccccscccccscccccccccccccccccccccccccccccccccccccccccccccccccccccccccccccccscccccccccccccccccccccccccccsssssssssssssssssssssssssssssssssssssssssssssssssssssssssssssssssssssssssssssssssssssssssssssssssssssssssssssssssssssssssssssssssssssssssssssssssssssssssssssssssssssssssssssssssssssss" />
</svg>
