<?xml version="1.0" encoding="utf-8"?>
<!-- Generator: Adobe Illustrator 24.0.2, SVG Export Plug-In . SVG Version: 6.00 Build 0)  -->
<svg version="1.1" id="Capa_1" xmlns="http://www.w3.org/2000/svg" xmlns:xlink="http://www.w3.org/1999/xlink" x="0px" y="0px"
	 viewBox="0 0 584 163" style="enable-background:new 0 0 584 163;" xml:space="preserve">
<style type="text/css">
	.st0{fill:#C2932D;}
	.st1{fill:#87B1FF;}
</style>
<path id="path1579" class="st0" d="M382.29,0H204.66c-11.05,0-20.03,8.99-20.03,20.05c0,11.05,8.99,20.03,20.03,20.03h177.63
	c11.05,0,20.03-8.99,20.03-20.03C402.32,8.99,393.33,0,382.29,0z"/>
<path id="path1581" class="st0" d="M382.29,61.48H204.66c-11.05,0-20.03,8.99-20.03,20.05c0,11.05,8.99,20.03,20.03,20.03h177.63
	c11.05,0,20.03-8.99,20.03-20.03C402.32,70.47,393.33,61.48,382.29,61.48L382.29,61.48z"/>
<path id="path1583" class="st0" d="M382.29,122.96H204.66c-11.05,0-20.03,8.99-20.03,20.05c0,11.05,8.99,20.03,20.03,20.03h177.63
	c11.05,0,20.03-8.99,20.03-20.03C402.32,131.95,393.33,122.96,382.29,122.96z"/>
<g id="g966">
	<g id="g964">
		<path id="path962" class="st1" d="M175.33,13.97c-2.46-6.4-9.66-9.59-16.06-7.14L8,64.74c-4.68,1.79-7.83,6.22-7.98,11.22
			c-0.15,5.01,2.74,9.61,7.31,11.67l151.28,68.26c1.66,0.75,3.4,1.1,5.11,1.1c4.74,0,9.26-2.72,11.34-7.31
			c2.83-6.25,0.05-13.6-6.21-16.42l-124.14-56L168.18,30C174.59,27.55,177.8,20.37,175.33,13.97z"/>
	</g>
</g>
<g id="g880">
	<g id="g878">
		<path id="path876" class="st1" d="M408.66,149.72c2.08,4.59,6.6,7.3,11.34,7.3c1.71,0,3.45-0.35,5.11-1.1l151.27-68.26
			c4.57-2.06,7.45-6.67,7.31-11.67c-0.14-5.01-3.29-9.43-7.97-11.22L424.45,6.85c-6.4-2.45-13.6,0.74-16.06,7.14
			c-2.46,6.4,0.75,13.58,7.16,16.03l123.46,47.27L414.87,133.3C408.61,136.12,405.83,143.48,408.66,149.72z"/>
	</g>
</g>
</svg>
