<?xml version="1.0" encoding="UTF-8" standalone="no"?>
<svg
   xmlns:dc="http://purl.org/dc/elements/1.1/"
   xmlns:cc="http://creativecommons.org/ns#"
   xmlns:rdf="http://www.w3.org/1999/02/22-rdf-syntax-ns#"
   xmlns:svg="http://www.w3.org/2000/svg"
   xmlns="http://www.w3.org/2000/svg"
   xmlns:sodipodi="http://sodipodi.sourceforge.net/DTD/sodipodi-0.dtd"
   xmlns:inkscape="http://www.inkscape.org/namespaces/inkscape"
   version="1.1"
   id="Capa_1"
   x="0px"
   y="0px"
   viewBox="0 0 512 512"
   style="enable-background:new 0 0 512 512;"
   xml:space="preserve"
   sodipodi:docname="whatsapp.svg"
   inkscape:version="1.0.1 (3bc2e813f5, 2020-09-07)"><metadata
   id="metadata2096"><rdf:RDF><cc:Work
       rdf:about=""><dc:format>image/svg+xml</dc:format><dc:type
         rdf:resource="http://purl.org/dc/dcmitype/StillImage" /><dc:title></dc:title></cc:Work></rdf:RDF></metadata><defs
   id="defs2094" /><sodipodi:namedview
   pagecolor="#ffffff"
   bordercolor="#666666"
   borderopacity="1"
   objecttolerance="10"
   gridtolerance="10"
   guidetolerance="10"
   inkscape:pageopacity="0"
   inkscape:pageshadow="2"
   inkscape:window-width="1360"
   inkscape:window-height="705"
   id="namedview2092"
   showgrid="false"
   inkscape:zoom="1.0507812"
   inkscape:cx="256"
   inkscape:cy="256"
   inkscape:window-x="-8"
   inkscape:window-y="-8"
   inkscape:window-maximized="1"
   inkscape:current-layer="Capa_1"
   inkscape:document-rotation="0" />
<path
   style="fill:#000000"
   d="M0,512l51.917-148.334c-19.938-36.123-30.444-76.904-30.444-118.402  c0-65.512,25.511-127.104,71.836-173.427S201.224,0,266.737,0S393.84,25.511,440.164,71.836S512,179.751,512,245.263  s-25.511,127.104-71.836,173.427c-46.324,46.324-107.915,71.836-173.427,71.836c-41.5,0-82.279-10.505-118.402-30.444L0,512z"
   id="path2053" />
<path
   style="fill:#000000"
   d="M0,512l148.333-51.917c36.124,19.938,76.904,30.444,118.403,30.444  c65.512,0,127.104-25.512,173.427-71.836S512,310.776,512,245.263S486.489,118.16,440.164,71.836L0,512z"
   id="path2055" />
<path
   style="fill:#c4fafa;fill-opacity:1"
   d="M211.018,300.982c58.642,58.642,125.195,87.165,148.652,63.708l28.314-28.314  c5.864-5.864,5.864-15.372,0-21.236l-35.393-35.393c-5.864-5.864-15.372-5.864-21.236,0l-21.236,21.236  c-43.487-20.599-78.502-55.615-99.101-99.101l21.236-21.236c5.864-5.864,5.864-15.372,0-21.236l-35.393-35.393  c-5.864-5.864-15.372-5.864-21.236,0l-28.314,28.314C123.853,175.787,152.376,242.34,211.018,300.982z"
   id="path2057" />

<g
   id="g2061">
</g>
<g
   id="g2063">
</g>
<g
   id="g2065">
</g>
<g
   id="g2067">
</g>
<g
   id="g2069">
</g>
<g
   id="g2071">
</g>
<g
   id="g2073">
</g>
<g
   id="g2075">
</g>
<g
   id="g2077">
</g>
<g
   id="g2079">
</g>
<g
   id="g2081">
</g>
<g
   id="g2083">
</g>
<g
   id="g2085">
</g>
<g
   id="g2087">
</g>
<g
   id="g2089">
</g>
</svg>
